<?xml version="1.0" encoding="UTF-8"?>
<svg id="Layer_1" data-name="Layer 1" xmlns="http://www.w3.org/2000/svg" viewBox="0 0 631.09 615.31">
  <g>
    <path d="m313.25,558.41c-32.77-2.73-63.92-18.08-96.9-19.86-25.3-1.36-50.26,5.34-74.71,11.98-32.57,8.84-65.17,17.7-97.14,28.54-5.54,1.88-11.5,3.84-17.12,2.24-12.07-3.43-14.15-19.4-13.86-31.94.73-31.92,5.54-59.5,29.12-82.65,22.57-22.16,53.14-33.17,79.07-50.55,42.91-28.76,80.27-66.64,127.64-87.22,17.04-7.41,36.21-12.44,54.13-7.53,3.39.93,6.87,2.34,8.93,5.19,5.24,7.24-1.92,16.81-8.57,22.79-11.96,10.75-23.91,21.5-35.87,32.25-23.66,21.28-48.19,43.79-59.12,73.68,47.09,1.83,93.17,4.03,140.03,9.03,6.14.66,12.38,1.31,18.46.2,9.6-1.76,17.81-7.7,26.2-12.7,23.03-13.72,49.86-21.37,70.09-38.95,21.15-18.38,32.52-44.89,49.81-66.46,17.63-21.99,37.59-43.04,63.04-55.89,6.03-3.04,12.6-5.66,19.33-5.1,6.73.56,13.54,5.16,14.59,11.83.88,5.54-2.22,10.84-5.18,15.6-37.04,59.36-73.43,121.85-113.83,179.85-5.55,7.97-11.44,16.02-19.54,21.38-8.35,5.53-18.38,7.78-28.01,10.54-41.3,11.85-80.56,35.19-123.52,34.17-2.37-.06-4.72-.19-7.07-.38Z"/>
    <path d="m401.73,188.59c-3.69,3.12-7.53,6.05-11.52,8.78-9.45,6.45-17.37,5.43-28.04,2.67l-72.37-18.68c-2.88-.74-2.95-4.81-.09-5.65l72.49-21.22c10.5-3.07,18.35-11.82,20.27-22.59l20.15-112.77c.57-3.18,5.11-3.23,5.75-.06,5.96,29.51,11.87,59.03,17.81,88.54,1.52,7.54,3.12,15.07,4.82,22.57.68,3,1.55,5.87,2.37,8.81.85,3.03.16,5.4.16,8.4-2.57,11.28-12.33,21.81-20.02,30.01-3.71,3.95-7.64,7.69-11.77,11.19Z"/>
    <path d="m439.78,240.09l-20.52,135.3c-.5,3.29-5.22,3.33-5.78.06l-23.01-134.26c-1.47-6.62-3.28-13.23-4.79-19.89-.85-3.76.8-7.72,4.19-9.57,9.06-4.95,16.93-11.98,25.37-17.82,9.75-6.74,20.63-14.95,28.36-24.52,2.45-3.03,6.65-3.98,10.21-2.41,9.52,4.2,19.47,7.89,29.44,10.47,16.27,4.2,32.55,8.4,48.82,12.6,2.88.74,2.94,4.81.09,5.65l-71.99,21.07c-10.76,3.15-18.72,12.25-20.4,23.34Z"/>
  </g>
  <circle cx="488.8" cy="118.67" r="19.77"/>
</svg>