<?xml version="1.0" encoding="UTF-8"?>
<svg id="Layer_1" data-name="Layer 1" xmlns="http://www.w3.org/2000/svg" viewBox="0 0 1882.2 405.44">
  <defs>
    <style>
      .cls-1 {
        fill: rgba(249, 139, 78, 1);
      }
    </style>
  </defs>
  <g>
    <path class="cls-1" d="m607.78,310.98v-129.81l-32,129.81h-46.19l-31.7-129.21v129.21h-43.17V110.52h68.53l30.49,140.68,30.49-140.68h67.32v200.46h-43.77Z"/>
    <path class="cls-1" d="m758.42,293.77c-5.74,12.68-22.04,18.72-37.44,18.72-34.11,0-54.04-21.74-54.04-52.53v-97.51h43.78v90.87c0,15.4,6.64,23.85,21.43,23.85s26.27-10.87,26.27-23.85v-90.87h43.77v152.76c0,41.66-27.47,66.11-68.83,66.11-45.59,0-66.11-23.85-66.11-62.19h40.76c0,15.09,8.45,24.45,25.96,24.45,13.89,0,24.45-8.76,24.45-27.77v-22.04Z"/>
    <path class="cls-1" d="m932.01,310.98v-52.83c0-19.02-6.34-25.06-25.06-25.06h-43.47v77.89h-45.28V110.52h102.95c38.34,0,61.59,23.55,61.59,56.45,0,25.36-11.77,41.66-30.79,48,17.51,5.43,25.96,15.09,25.96,38.94v57.06h-45.89Zm-68.53-161.81v48.91h49.51c19.02,0,26.87-9.36,26.87-24.75s-7.85-24.15-26.27-24.15h-50.11Z"/>
    <path class="cls-1" d="m1035.25,247.89c1.21,18.72,12.68,32.3,29.28,32.3,10.87,0,20.83-5.13,22.94-12.98h44.98c-9.06,30.49-33.81,47.7-65.81,47.7-50.11,0-75.17-27.17-75.17-80.91,0-45.89,26.57-75.47,72.45-75.47s70.34,28.08,70.34,83.02v6.34h-99.02Zm55.25-26.27c-1.21-19.62-12.08-28.38-27.17-28.38s-25.66,9.66-27.17,28.38h54.34Z"/>
    <path class="cls-1" d="m1258.34,310.98l-20.83-79.4-20.83,79.4h-44.68l-41.66-148.53h45.89l21.74,89.36,17.21-89.36h44.38l20.53,89.36,19.92-89.36h44.98l-41.96,148.53h-44.68Z"/>
    <path class="cls-1" d="m1435.25,310.98c-1.51-3.32-2.72-8.15-3.02-12.68-7.55,9.66-22.34,16.6-44.38,16.6-34.11,0-49.21-16.3-49.21-42.87,0-38.64,29.28-45.89,69.13-51.93,16.91-2.41,21.74-5.74,21.74-15.09,0-8.45-9.66-12.98-22.04-12.98-16.6,0-22.94,7.55-24.45,18.72h-39.55c.6-30.79,17.51-52.23,66.11-52.23s64,21.13,64,58.57v93.89h-38.34Zm-5.13-69.74c-3.32,3.02-9.06,4.83-21.74,7.55-20.83,4.53-26.87,10.26-26.87,20.83,0,9.36,5.74,14.19,16,14.19,21.13,0,32-14.49,32.3-29.89l.3-12.68Z"/>
    <path class="cls-1" d="m1490.19,310.98v-148.53h41.06v13.59c12.98-16.61,26.57-17.51,41.66-17.51h4.23v44.68c-3.62-.6-7.25-.91-10.87-.91-21.74,0-32.3,8.76-32.3,31.09v77.59h-43.78Z"/>
    <path class="cls-1" d="m1678.87,310.98l-.3-17.51c-8.76,15.1-23.25,21.43-38.64,21.43-37.44,0-64.3-29.89-64.3-79.7,0-44.08,22.04-76.68,60.38-76.68,17.81,0,32.6,6.34,41.96,22.04v-72.46h42.87v202.87h-41.96Zm.6-72.15c0-29.58-10.87-42.87-29.89-42.87s-29.59,12.68-29.59,41.66c0,27.17,11.77,41.66,29.59,41.66s29.89-14.19,29.89-40.45Z"/>
    <path class="cls-1" d="m1824.98,207.43c-1.21-12.07-7.25-19.32-24.15-19.32-14.49,0-21.43,5.43-21.43,12.38,0,7.85,8.45,11.47,20.83,14.79,14.19,3.62,31.7,6.94,46.49,13.89,13.89,6.64,23.55,16.6,23.55,37.13,0,28.98-19.32,48.6-65.21,48.6s-71.85-20.23-72.76-51.62h44.68c0,11.77,9.96,20.23,28.38,20.23,12.38,0,22.34-3.92,22.34-13.89,0-7.85-6.34-10.57-19.62-13.89-25.66-6.34-33.81-8.76-43.77-13.59-19.92-9.96-26.57-24.15-26.57-39.55,0-24.15,16.6-44.08,64-44.08,43.47,0,62.19,16.91,64.3,48.91h-41.06Z"/>
  </g>
  <g>
    <g>
      <path class="cls-1" d="m192.84,350.17c-20.16-1.68-39.33-11.12-59.61-12.22-15.56-.84-30.92,3.28-45.96,7.37-20.04,5.44-40.09,10.89-59.76,17.56-3.41,1.16-7.07,2.36-10.53,1.38-7.43-2.11-8.71-11.93-8.53-19.65.45-19.64,3.41-36.6,17.91-50.85,13.88-13.63,32.69-20.41,48.64-31.1,26.4-17.69,49.38-40.99,78.53-53.66,10.48-4.56,22.28-7.65,33.3-4.63,2.08.57,4.23,1.44,5.5,3.19,3.22,4.46-1.18,10.34-5.27,14.02-7.36,6.61-14.71,13.23-22.07,19.84-14.56,13.09-29.64,26.94-36.37,45.33,28.97,1.13,57.32,2.48,86.15,5.56,3.78.4,7.62.8,11.35.12,5.91-1.08,10.96-4.74,16.12-7.81,14.17-8.44,30.67-13.15,43.12-23.96,13.01-11.31,20-27.62,30.64-40.89,10.84-13.53,23.13-26.48,38.78-34.39,3.71-1.87,7.75-3.48,11.89-3.14s8.33,3.17,8.98,7.28c.54,3.41-1.36,6.67-3.19,9.6-22.79,36.52-45.18,74.96-70.03,110.64-3.42,4.9-7.04,9.85-12.02,13.15-5.14,3.4-11.31,4.78-17.23,6.48-25.41,7.29-49.56,21.65-75.99,21.02-1.46-.03-2.9-.12-4.35-.24Z"/>
      <path class="cls-1" d="m247.28,122.66c-2.27,1.92-4.63,3.72-7.09,5.4-5.81,3.97-10.68,3.34-17.25,1.64l-44.52-11.49c-1.77-.46-1.81-2.96-.06-3.47l44.6-13.05c6.46-1.89,11.29-7.27,12.47-13.9l12.4-69.38c.35-1.96,3.15-1.99,3.54-.04,3.67,18.15,7.3,36.32,10.96,54.47.93,4.64,1.92,9.27,2.96,13.88.42,1.85.95,3.61,1.46,5.42.52,1.87.1,3.32.1,5.17-1.58,6.94-7.59,13.41-12.32,18.46-2.28,2.43-4.7,4.73-7.24,6.88Z"/>
      <path class="cls-1" d="m270.68,154.34l-12.62,83.24c-.31,2.02-3.21,2.05-3.56.03l-14.16-82.6c-.91-4.07-2.02-8.14-2.94-12.24-.52-2.32.49-4.75,2.57-5.89,5.57-3.04,10.42-7.37,15.61-10.96,6-4.15,12.69-9.2,17.45-15.08,1.5-1.86,4.09-2.45,6.28-1.48,5.85,2.58,11.98,4.86,18.11,6.44,10.01,2.58,20.02,5.17,30.03,7.75,1.77.46,1.81,2.96.06,3.47l-44.29,12.96c-6.62,1.94-11.51,7.54-12.55,14.36Z"/>
    </g>
    <circle class="cls-1" cx="300.84" cy="79.65" r="12.16"/>
  </g>
</svg>