<svg width="52" height="68" viewBox="0 0 52 68" fill="none" xmlns="http://www.w3.org/2000/svg">
<path d="M48.6087 67.1107H3.3913C1.50725 67.1107 0 65.6035 0 63.7194C0 61.8354 1.50725 60.3281 3.3913 60.3281H48.6087C50.4928 60.3281 52 61.8354 52 63.7194C52 65.6035 50.4928 67.1107 48.6087 67.1107Z" fill="#7F513A"/>
<path d="M25.9992 52.0377C24.1151 52.0377 22.6079 50.5304 22.6079 48.6464V11.6058L15.2224 18.9913C13.9036 20.3101 11.7557 20.3101 10.4369 18.9913C9.11804 17.6725 9.11804 15.5246 10.4369 14.2058L23.6253 1.01739C23.9644 0.678261 24.3412 0.452175 24.718 0.263769C25.0949 0.113044 25.5093 0.0376812 25.9238 0H26.0746C26.4891 0 26.9036 0.113044 27.2804 0.263769C27.6949 0.414493 28.0717 0.678261 28.3731 1.01739L41.5615 14.2058C42.8804 15.5246 42.8804 17.6725 41.5615 18.9913C40.2427 20.3101 38.0949 20.3101 36.776 18.9913L29.3905 11.6058V48.6464C29.3905 50.5304 27.8833 52.0377 25.9992 52.0377Z" fill="#7F513A"/>
</svg>
